<?xml version="1.0" encoding="UTF-8" standalone="no"?>
<!DOCTYPE svg PUBLIC "-//W3C//DTD SVG 1.1//EN" "http://www.w3.org/Graphics/SVG/1.1/DTD/svg11.dtd">
<svg version="1.1" xmlns="http://www.w3.org/2000/svg" xmlns:xlink="http://www.w3.org/1999/xlink" preserveAspectRatio="xMidYMid meet" viewBox="257.6386697569767 272.14971883560406 151.86667763899533 42.18985551759482" width="154.88" height="40"><defs><path d="M374.81 305.46L373.6 305.46L373.6 304.24L373.6 304.24L374.81 304.24L374.81 305.46ZM376.5 305.46L375.28 305.46L375.28 304.24L375.28 304.24L376.5 304.24L376.5 305.46ZM375.28 307.14L375.28 305.92L376.5 305.92L376.5 305.92L376.5 307.14L375.28 307.14ZM373.6 305.92L374.81 305.92L374.81 307.14L374.81 307.14L373.6 307.14L373.6 305.92ZM391.4 305.58L390.19 305.58L390.19 304.36L390.19 304.36L391.4 304.36L391.4 305.58ZM393.09 305.58L391.87 305.58L391.87 304.36L391.87 304.36L393.09 304.36L393.09 305.58ZM391.87 307.26L391.87 306.04L393.09 306.04L393.09 306.04L393.09 307.26L391.87 307.26ZM390.19 306.04L391.4 306.04L391.4 307.26L391.4 307.26L390.19 307.26L390.19 306.04Z" id="c4wa6SlM1"></path><path d="M374.81 305.46L373.6 305.46L373.6 304.24L373.6 304.24L374.81 304.24L374.81 305.46ZM376.5 305.46L375.28 305.46L375.28 304.24L375.28 304.24L376.5 304.24L376.5 305.46ZM375.28 307.14L375.28 305.92L376.5 305.92L376.5 305.92L376.5 307.14L375.28 307.14ZM373.6 305.92L374.81 305.92L374.81 307.14L374.81 307.14L373.6 307.14L373.6 305.92ZM391.4 305.58L390.19 305.58L390.19 304.36L390.19 304.36L391.4 304.36L391.4 305.58ZM393.09 305.58L391.87 305.58L391.87 304.36L391.87 304.36L393.09 304.36L393.09 305.58ZM391.87 307.26L391.87 306.04L393.09 306.04L393.09 306.04L393.09 307.26L391.87 307.26ZM390.19 306.04L391.4 306.04L391.4 307.26L391.4 307.26L390.19 307.26L390.19 306.04Z" id="aqtOUsqKJ"></path><path d="M377.02 299.83C379.25 301.61 383.95 305.43 383.95 305.43C386.3 303.49 389.02 301.27 391.41 299.32C396.38 303.27 406.51 311.34 406.51 311.34C405.43 311.34 403.88 311.34 402.81 311.34C399.98 309.13 397.15 306.91 394.32 304.7C393.37 303.96 392.43 303.22 391.48 302.48C389.65 303.99 387.85 305.48 386.02 306.99C387.38 308.13 390.71 311 391.07 311.34C389.66 311.34 388.26 311.34 386.86 311.34C382.93 308.09 379 304.84 375.07 301.58C371.21 304.86 367.38 308.1 363.56 311.34C362.38 311.34 359.79 311.34 359.69 311.34C364.74 307.01 369.9 302.59 375 298.23C375.68 298.77 376.35 299.3 377.02 299.83Z" id="aB2URPSIb"></path><path d="M377.02 299.83C379.25 301.61 383.95 305.43 383.95 305.43C386.3 303.49 389.02 301.27 391.41 299.32C396.38 303.27 406.51 311.34 406.51 311.34C405.43 311.34 403.88 311.34 402.81 311.34C399.98 309.13 397.15 306.91 394.32 304.7C393.37 303.96 392.43 303.22 391.48 302.48C389.65 303.99 387.85 305.48 386.02 306.99C387.38 308.13 390.71 311 391.07 311.34C389.66 311.34 388.26 311.34 386.86 311.34C382.93 308.09 379 304.84 375.07 301.58C371.21 304.86 367.38 308.1 363.56 311.34C362.38 311.34 359.79 311.34 359.69 311.34C364.74 307.01 369.9 302.59 375 298.23C375.68 298.77 376.35 299.3 377.02 299.83Z" id="cluYFt6nc"></path><path d="M374.87 297.22C374.57 297.49 374.28 297.74 373.92 298.07C373.91 297.84 373.89 281.64 373.89 281.64C374.46 281.32 375.34 280.73 375.91 280.42C376.06 280.34 376.31 280.32 376.46 280.4C377.07 280.68 377.66 281.01 378.25 281.32C378.38 281.39 378.51 281.44 378.71 281.53C378.71 280.54 378.72 279.6 378.7 278.67C378.7 278.36 378.81 278.19 379.07 278.04C381.88 276.44 384.69 274.83 387.5 273.23C387.63 273.15 387.87 273.12 387.97 273.19C389.85 274.45 391.72 275.73 393.56 277.07C391.77 276.18 389.97 275.29 388.11 274.37C388.11 274.63 388.12 292.06 388.12 292.06C387.44 292.44 386.04 293.29 385.37 293.68C385.37 293.68 385.38 300.14 385.39 303.08C385.29 303.17 384.8 303.63 383.91 304.44C383.41 303.96 383.14 303.7 383.09 303.65C383.11 297.75 383.11 284.87 383.11 284.87C381.27 283.92 378.96 282.68 377.13 281.69C376.99 281.62 376.85 281.56 376.62 281.45C376.62 287.19 376.62 292.85 376.62 298.59C376.01 298.11 375.45 297.68 374.87 297.22Z" id="cFgwWsfzP"></path><path d="M374.87 297.22C374.57 297.49 374.28 297.74 373.92 298.07C373.91 297.84 373.89 281.64 373.89 281.64C374.46 281.32 375.34 280.73 375.91 280.42C376.06 280.34 376.31 280.32 376.46 280.4C377.07 280.68 377.66 281.01 378.25 281.32C378.38 281.39 378.51 281.44 378.71 281.53C378.71 280.54 378.72 279.6 378.7 278.67C378.7 278.36 378.81 278.19 379.07 278.04C381.88 276.44 384.69 274.83 387.5 273.23C387.63 273.15 387.87 273.12 387.97 273.19C389.85 274.45 391.72 275.73 393.56 277.07C391.77 276.18 389.97 275.29 388.11 274.37C388.11 274.63 388.12 292.06 388.12 292.06C387.44 292.44 386.04 293.29 385.37 293.68C385.37 293.68 385.38 300.14 385.39 303.08C385.29 303.17 384.8 303.63 383.91 304.44C383.41 303.96 383.14 303.7 383.09 303.65C383.11 297.75 383.11 284.87 383.11 284.87C381.27 283.92 378.96 282.68 377.13 281.69C376.99 281.62 376.85 281.56 376.62 281.45C376.62 287.19 376.62 292.85 376.62 298.59C376.01 298.11 375.45 297.68 374.87 297.22Z" id="hri6z9xhv"></path><path d="M386.4 302.45C386.4 301.6 386.4 294.87 386.4 294.03C389.43 292.41 393.1 290.45 396.13 288.84C396.13 288.84 396.22 288.89 396.35 288.96C398.15 289.94 399.93 290.93 401.71 291.93C401.76 291.95 401.8 291.99 401.81 292.09C399.87 291.31 397.93 290.53 395.94 289.73C395.94 293.84 395.94 297.88 395.94 302.05C394.3 300.74 392.76 299.52 391.2 298.27C389.62 299.65 388.02 301.04 386.4 302.45Z" id="aEmmcOdlI"></path><path d="M386.4 302.45C386.4 301.6 386.4 294.87 386.4 294.03C389.43 292.41 393.1 290.45 396.13 288.84C396.13 288.84 396.22 288.89 396.35 288.96C398.15 289.94 399.93 290.93 401.71 291.93C401.76 291.95 401.8 291.99 401.81 292.09C399.87 291.31 397.93 290.53 395.94 289.73C395.94 293.84 395.94 297.88 395.94 302.05C394.3 300.74 392.76 299.52 391.2 298.27C389.62 299.65 388.02 301.04 386.4 302.45Z" id="dFUxdin5n"></path><path d="M367.1 303.88C367.08 303.71 367.06 285.83 367.06 285.73C367.83 285.31 368.91 284.68 369.74 284.19C369.74 284.42 369.75 298.16 369.75 301.65C368.99 302.27 367.9 303.2 367.1 303.88Z" id="a45YiR5JVW"></path><path d="M367.1 303.88C367.08 303.71 367.06 285.83 367.06 285.73C367.83 285.31 368.91 284.68 369.74 284.19C369.74 284.42 369.75 298.16 369.75 301.65C368.99 302.27 367.9 303.2 367.1 303.88Z" id="aoh9MQkho"></path><path d="M371.02 300.54C371.01 300.38 370.99 283.18 370.99 283.18C370.99 283.18 372.39 282.35 372.97 282.07C372.97 282.29 372.97 298.86 372.97 298.91C372.43 299.33 371.59 300.06 371.02 300.54Z" id="dNTCvNZQe"></path><path d="M371.02 300.54C371.01 300.38 370.99 283.18 370.99 283.18C370.99 283.18 372.39 282.35 372.97 282.07C372.97 282.29 372.97 298.86 372.97 298.91C372.43 299.33 371.59 300.06 371.02 300.54Z" id="ids9liozz"></path><path d="M258.64 302.59L258.64 279.74L262.33 279.74L262.33 302.59L258.64 302.59Z" id="d13THZDfel"></path><path d="M258.64 302.59L258.64 279.74L262.33 279.74L262.33 302.59L258.64 302.59Z" id="a3iglf6u37"></path><path d="M270.64 307.15C269.88 307.94 268.98 308.33 267.92 308.33C267.77 308.33 267 308.33 265.63 308.33C265.63 308.07 265.63 305.97 265.63 305.71C266.36 305.71 266.77 305.71 266.85 305.71C267.67 305.71 268.09 305.14 268.09 304C268.09 302.99 268.09 297.97 268.09 288.93C268.33 288.93 269.56 288.93 271.78 288.93L271.78 299.96L273.15 299.96L273.15 302.59C272.33 302.59 271.87 302.59 271.78 302.59C271.78 303.64 271.78 304.22 271.78 304.33C271.78 305.43 271.4 306.37 270.64 307.15Z" id="ayGZhIjIF"></path><path d="M270.64 307.15C269.88 307.94 268.98 308.33 267.92 308.33C267.77 308.33 267 308.33 265.63 308.33C265.63 308.07 265.63 305.97 265.63 305.71C266.36 305.71 266.77 305.71 266.85 305.71C267.67 305.71 268.09 305.14 268.09 304C268.09 302.99 268.09 297.97 268.09 288.93C268.33 288.93 269.56 288.93 271.78 288.93L271.78 299.96L273.15 299.96L273.15 302.59C272.33 302.59 271.87 302.59 271.78 302.59C271.78 303.64 271.78 304.22 271.78 304.33C271.78 305.43 271.4 306.37 270.64 307.15Z" id="dcvYLwJlV"></path><path d="M291.67 298.56C291.67 299.69 291.28 300.64 290.53 301.4C289.76 302.19 288.85 302.59 287.81 302.59C287.7 302.59 286.81 302.59 286.7 302.59C285.65 302.57 284.75 302.17 284 301.39C283.91 301.29 283.83 301.21 283.77 301.11C283.7 301.03 283.64 300.93 283.57 300.83C283.49 300.93 283.42 301.03 283.35 301.11C283.29 301.21 283.21 301.29 283.13 301.39C282.38 302.18 281.48 302.58 280.42 302.59C280.31 302.59 279.43 302.59 279.31 302.59C278.32 302.59 277.46 302.23 276.76 301.52C276.01 302.22 275.15 302.58 274.17 302.59C274.08 302.59 273.6 302.59 272.75 302.59C272.75 302.33 272.75 300.22 272.75 299.96C273.43 299.96 273.8 299.96 273.87 299.96C274.42 299.96 274.84 299.84 275.13 299.61C275.4 299.36 275.54 298.92 275.54 298.28C275.54 297.66 275.54 294.54 275.54 288.93C275.91 288.93 278.86 288.93 279.23 288.93C279.23 294.52 279.23 297.63 279.23 298.25C279.23 299.39 279.66 299.96 280.5 299.96C281.34 299.96 281.75 299.41 281.75 298.3C281.75 297.68 281.75 294.55 281.75 288.93C282.12 288.93 285.08 288.93 285.45 288.93C285.45 294.52 285.45 297.63 285.45 298.25C285.45 299.39 285.87 299.96 286.72 299.96C287.55 299.96 287.97 299.39 287.97 298.25C287.97 297.63 287.97 294.52 287.97 288.93C288.22 288.93 289.45 288.93 291.67 288.93C291.67 294.92 291.67 298.13 291.67 298.56Z" id="i3wPsF0NOr"></path><path d="M291.67 298.56C291.67 299.69 291.28 300.64 290.53 301.4C289.76 302.19 288.85 302.59 287.81 302.59C287.7 302.59 286.81 302.59 286.7 302.59C285.65 302.57 284.75 302.17 284 301.39C283.91 301.29 283.83 301.21 283.77 301.11C283.7 301.03 283.64 300.93 283.57 300.83C283.49 300.93 283.42 301.03 283.35 301.11C283.29 301.21 283.21 301.29 283.13 301.39C282.38 302.18 281.48 302.58 280.42 302.59C280.31 302.59 279.43 302.59 279.31 302.59C278.32 302.59 277.46 302.23 276.76 301.52C276.01 302.22 275.15 302.58 274.17 302.59C274.08 302.59 273.6 302.59 272.75 302.59C272.75 302.33 272.75 300.22 272.75 299.96C273.43 299.96 273.8 299.96 273.87 299.96C274.42 299.96 274.84 299.84 275.13 299.61C275.4 299.36 275.54 298.92 275.54 298.28C275.54 297.66 275.54 294.54 275.54 288.93C275.91 288.93 278.86 288.93 279.23 288.93C279.23 294.52 279.23 297.63 279.23 298.25C279.23 299.39 279.66 299.96 280.5 299.96C281.34 299.96 281.75 299.41 281.75 298.3C281.75 297.68 281.75 294.55 281.75 288.93C282.12 288.93 285.08 288.93 285.45 288.93C285.45 294.52 285.45 297.63 285.45 298.25C285.45 299.39 285.87 299.96 286.72 299.96C287.55 299.96 287.97 299.39 287.97 298.25C287.97 297.63 287.97 294.52 287.97 288.93C288.22 288.93 289.45 288.93 291.67 288.93C291.67 294.92 291.67 298.13 291.67 298.56Z" id="a1nyflCVcs"></path><path d="M293.39 305.54C293.39 304.12 293.39 292.76 293.39 291.34C293.39 288.46 295.73 286.13 298.6 286.13C299.08 286.13 302.95 286.13 303.43 286.13C303.52 286.13 303.59 286.2 303.59 286.29C303.59 287.81 303.59 299.97 303.59 301.49C303.59 303.89 301.64 305.84 299.24 305.84C298.13 305.84 294.25 305.84 293.69 305.84C293.53 305.84 293.39 305.7 293.39 305.54Z" id="c12NOFuHjV"></path><path d="M293.39 305.54C293.39 304.12 293.39 292.76 293.39 291.34C293.39 288.46 295.73 286.13 298.6 286.13C299.08 286.13 302.95 286.13 303.43 286.13C303.52 286.13 303.59 286.2 303.59 286.29C303.59 287.81 303.59 299.97 303.59 301.49C303.59 303.89 301.64 305.84 299.24 305.84C298.13 305.84 294.25 305.84 293.69 305.84C293.53 305.84 293.39 305.7 293.39 305.54Z" id="b1W2lswJvu"></path><path d="M326.37 292.96C326.37 293.43 326.37 295.76 326.37 299.96C326.48 299.96 327.07 299.96 328.13 299.96C328.13 301.54 328.13 302.41 328.13 302.59C316.41 302.59 309.89 302.59 308.59 302.59C307.53 302.59 306.61 302.19 305.85 301.4C305.49 301.01 305.21 300.58 305.02 300.12C304.83 299.67 304.73 299.15 304.73 298.59C304.73 297.95 304.73 294.72 304.73 288.93C305.1 288.93 308.06 288.93 308.43 288.93C308.43 294.54 308.43 297.66 308.43 298.28C308.43 298.71 308.54 299.11 308.76 299.47C308.98 299.8 309.29 299.96 309.7 299.96C310.14 299.96 312.36 299.96 316.34 299.96C316.34 295.75 316.34 293.41 316.34 292.95C316.34 291.89 316.72 290.95 317.48 290.12C318.25 289.33 319.16 288.93 320.22 288.93C320.45 288.93 322.29 288.93 322.52 288.93C323.06 288.93 323.56 289.03 324.01 289.22C324.46 289.42 324.88 289.72 325.26 290.12C326 290.93 326.37 291.88 326.37 292.96ZM319.61 284.98C319.61 284.74 319.65 284.52 319.73 284.3C319.81 284.09 319.93 283.9 320.08 283.74C320.22 283.58 320.4 283.46 320.6 283.37C320.79 283.28 321 283.23 321.22 283.23C321.44 283.23 321.65 283.28 321.85 283.37C322.04 283.46 322.22 283.58 322.36 283.74C322.5 283.9 322.62 284.09 322.7 284.3C322.78 284.52 322.82 284.74 322.82 284.98C322.82 285.48 322.67 285.9 322.36 286.23C322.05 286.57 321.67 286.74 321.22 286.74C320.77 286.74 320.39 286.57 320.08 286.23C319.76 285.9 319.61 285.48 319.61 284.98ZM320.03 293.3C320.03 293.75 320.03 295.97 320.03 299.96C320.21 299.96 321.09 299.96 322.67 299.96C322.67 295.96 322.67 293.73 322.67 293.29C322.4 292.13 321.96 291.56 321.35 291.56C320.47 291.56 320.03 292.14 320.03 293.3Z" id="dlDWBlal"></path><path d="M326.37 292.96C326.37 293.43 326.37 295.76 326.37 299.96C326.48 299.96 327.07 299.96 328.13 299.96C328.13 301.54 328.13 302.41 328.13 302.59C316.41 302.59 309.89 302.59 308.59 302.59C307.53 302.59 306.61 302.19 305.85 301.4C305.49 301.01 305.21 300.58 305.02 300.12C304.83 299.67 304.73 299.15 304.73 298.59C304.73 297.95 304.73 294.72 304.73 288.93C305.1 288.93 308.06 288.93 308.43 288.93C308.43 294.54 308.43 297.66 308.43 298.28C308.43 298.71 308.54 299.11 308.76 299.47C308.98 299.8 309.29 299.96 309.7 299.96C310.14 299.96 312.36 299.96 316.34 299.96C316.34 295.75 316.34 293.41 316.34 292.95C316.34 291.89 316.72 290.95 317.48 290.12C318.25 289.33 319.16 288.93 320.22 288.93C320.45 288.93 322.29 288.93 322.52 288.93C323.06 288.93 323.56 289.03 324.01 289.22C324.46 289.42 324.88 289.72 325.26 290.12C326 290.93 326.37 291.88 326.37 292.96ZM319.61 284.98C319.61 284.74 319.65 284.52 319.73 284.3C319.81 284.09 319.93 283.9 320.08 283.74C320.22 283.58 320.4 283.46 320.6 283.37C320.79 283.28 321 283.23 321.22 283.23C321.44 283.23 321.65 283.28 321.85 283.37C322.04 283.46 322.22 283.58 322.36 283.74C322.5 283.9 322.62 284.09 322.7 284.3C322.78 284.52 322.82 284.74 322.82 284.98C322.82 285.48 322.67 285.9 322.36 286.23C322.05 286.57 321.67 286.74 321.22 286.74C320.77 286.74 320.39 286.57 320.08 286.23C319.76 285.9 319.61 285.48 319.61 284.98ZM320.03 293.3C320.03 293.75 320.03 295.97 320.03 299.96C320.21 299.96 321.09 299.96 322.67 299.96C322.67 295.96 322.67 293.73 322.67 293.29C322.4 292.13 321.96 291.56 321.35 291.56C320.47 291.56 320.03 292.14 320.03 293.3Z" id="b319YTd7F"></path><path d="M339.67 292.96C339.67 293.43 339.67 295.76 339.67 299.96C339.77 299.96 340.28 299.96 341.19 299.96L341.19 302.59L327.67 302.59L327.67 299.96C328.86 299.96 329.52 299.96 329.65 299.96C329.65 295.75 329.65 293.41 329.65 292.95C329.65 291.89 330.03 290.95 330.79 290.12C331.55 289.33 332.47 288.93 333.52 288.93C333.75 288.93 335.6 288.93 335.83 288.93C336.37 288.93 336.86 289.03 337.32 289.22C337.77 289.42 338.18 289.72 338.57 290.12C339.3 290.93 339.67 291.88 339.67 292.96ZM331.01 284.98C331.01 284.74 331.06 284.52 331.14 284.3C331.22 284.09 331.34 283.9 331.49 283.74C331.63 283.58 331.8 283.46 332 283.37C332.19 283.28 332.4 283.23 332.63 283.23C332.85 283.23 333.06 283.28 333.25 283.37C333.44 283.46 333.61 283.58 333.75 283.74C333.89 283.9 334.01 284.09 334.09 284.3C334.18 284.52 334.22 284.74 334.22 284.98C334.22 285.23 334.18 285.46 334.09 285.67C334.01 285.89 333.9 286.08 333.75 286.23C333.61 286.39 333.44 286.52 333.25 286.61C333.06 286.7 332.85 286.74 332.63 286.74C332.17 286.74 331.78 286.57 331.48 286.23C331.17 285.9 331.01 285.48 331.01 284.98ZM333.34 293.3C333.34 293.75 333.34 295.97 333.34 299.96C333.52 299.96 334.4 299.96 335.98 299.96C335.98 295.96 335.98 293.73 335.98 293.29C335.69 292.13 335.24 291.56 334.66 291.56C333.78 291.56 333.34 292.14 333.34 293.3ZM334.74 284.98C334.74 284.74 334.78 284.52 334.87 284.3C334.95 284.09 335.06 283.9 335.21 283.74C335.36 283.58 335.53 283.46 335.73 283.37C335.93 283.28 336.14 283.23 336.36 283.23C336.58 283.23 336.79 283.28 336.98 283.37C337.18 283.46 337.35 283.58 337.5 283.74C337.64 283.9 337.75 284.09 337.83 284.3C337.91 284.52 337.96 284.74 337.96 284.98C337.96 285.48 337.8 285.9 337.5 286.23C337.19 286.57 336.81 286.74 336.36 286.74C335.91 286.74 335.53 286.57 335.21 286.23C334.9 285.9 334.74 285.48 334.74 284.98Z" id="a3V3fTuPK1"></path><path d="M339.67 292.96C339.67 293.43 339.67 295.76 339.67 299.96C339.77 299.96 340.28 299.96 341.19 299.96L341.19 302.59L327.67 302.59L327.67 299.96C328.86 299.96 329.52 299.96 329.65 299.96C329.65 295.75 329.65 293.41 329.65 292.95C329.65 291.89 330.03 290.95 330.79 290.12C331.55 289.33 332.47 288.93 333.52 288.93C333.75 288.93 335.6 288.93 335.83 288.93C336.37 288.93 336.86 289.03 337.32 289.22C337.77 289.42 338.18 289.72 338.57 290.12C339.3 290.93 339.67 291.88 339.67 292.96ZM331.01 284.98C331.01 284.74 331.06 284.52 331.14 284.3C331.22 284.09 331.34 283.9 331.49 283.74C331.63 283.58 331.8 283.46 332 283.37C332.19 283.28 332.4 283.23 332.63 283.23C332.85 283.23 333.06 283.28 333.25 283.37C333.44 283.46 333.61 283.58 333.75 283.74C333.89 283.9 334.01 284.09 334.09 284.3C334.18 284.52 334.22 284.74 334.22 284.98C334.22 285.23 334.18 285.46 334.09 285.67C334.01 285.89 333.9 286.08 333.75 286.23C333.61 286.39 333.44 286.52 333.25 286.61C333.06 286.7 332.85 286.74 332.63 286.74C332.17 286.74 331.78 286.57 331.48 286.23C331.17 285.9 331.01 285.48 331.01 284.98ZM333.34 293.3C333.34 293.75 333.34 295.97 333.34 299.96C333.52 299.96 334.4 299.96 335.98 299.96C335.98 295.96 335.98 293.73 335.98 293.29C335.69 292.13 335.24 291.56 334.66 291.56C333.78 291.56 333.34 292.14 333.34 293.3ZM334.74 284.98C334.74 284.74 334.78 284.52 334.87 284.3C334.95 284.09 335.06 283.9 335.21 283.74C335.36 283.58 335.53 283.46 335.73 283.37C335.93 283.28 336.14 283.23 336.36 283.23C336.58 283.23 336.79 283.28 336.98 283.37C337.18 283.46 337.35 283.58 337.5 283.74C337.64 283.9 337.75 284.09 337.83 284.3C337.91 284.52 337.96 284.74 337.96 284.98C337.96 285.48 337.8 285.9 337.5 286.23C337.19 286.57 336.81 286.74 336.36 286.74C335.91 286.74 335.53 286.57 335.21 286.23C334.9 285.9 334.74 285.48 334.74 284.98Z" id="a1wlxHS6X3"></path><path d="M359.69 298.56C359.69 299.69 359.31 300.64 358.55 301.4C357.78 302.19 356.88 302.59 355.83 302.59C355.72 302.59 354.84 302.59 354.72 302.59C353.67 302.57 352.77 302.17 352.02 301.39C351.93 301.29 351.86 301.21 351.79 301.11C351.72 301.03 351.66 300.93 351.59 300.83C351.52 300.93 351.44 301.03 351.38 301.11C351.31 301.21 351.23 301.29 351.15 301.39C350.4 302.18 349.5 302.58 348.44 302.59C348.33 302.59 347.45 302.59 347.34 302.59C346.34 302.59 345.49 302.23 344.79 301.52C344.04 302.22 343.17 302.58 342.2 302.59C342.1 302.59 341.63 302.59 340.78 302.59C340.78 302.33 340.78 300.22 340.78 299.96C341.45 299.96 341.82 299.96 341.9 299.96C342.45 299.96 342.87 299.84 343.15 299.61C343.43 299.36 343.56 298.92 343.56 298.28C343.56 297.66 343.56 294.54 343.56 288.93C343.93 288.93 346.89 288.93 347.26 288.93C347.26 294.52 347.26 297.63 347.26 298.25C347.26 299.39 347.68 299.96 348.53 299.96C349.36 299.96 349.78 299.41 349.78 298.3C349.78 297.68 349.78 294.55 349.78 288.93C350.15 288.93 353.1 288.93 353.47 288.93C353.47 294.52 353.47 297.63 353.47 298.25C353.47 299.39 353.9 299.96 354.74 299.96C355.58 299.96 355.99 299.39 355.99 298.25C355.99 297.63 355.99 294.52 355.99 288.93C356.24 288.93 357.47 288.93 359.69 288.93C359.69 294.92 359.69 298.13 359.69 298.56Z" id="e7XVpByPqb"></path><path d="M359.69 298.56C359.69 299.69 359.31 300.64 358.55 301.4C357.78 302.19 356.88 302.59 355.83 302.59C355.72 302.59 354.84 302.59 354.72 302.59C353.67 302.57 352.77 302.17 352.02 301.39C351.93 301.29 351.86 301.21 351.79 301.11C351.72 301.03 351.66 300.93 351.59 300.83C351.52 300.93 351.44 301.03 351.38 301.11C351.31 301.21 351.23 301.29 351.15 301.39C350.4 302.18 349.5 302.58 348.44 302.59C348.33 302.59 347.45 302.59 347.34 302.59C346.34 302.59 345.49 302.23 344.79 301.52C344.04 302.22 343.17 302.58 342.2 302.59C342.1 302.59 341.63 302.59 340.78 302.59C340.78 302.33 340.78 300.22 340.78 299.96C341.45 299.96 341.82 299.96 341.9 299.96C342.45 299.96 342.87 299.84 343.15 299.61C343.43 299.36 343.56 298.92 343.56 298.28C343.56 297.66 343.56 294.54 343.56 288.93C343.93 288.93 346.89 288.93 347.26 288.93C347.26 294.52 347.26 297.63 347.26 298.25C347.26 299.39 347.68 299.96 348.53 299.96C349.36 299.96 349.78 299.41 349.78 298.3C349.78 297.68 349.78 294.55 349.78 288.93C350.15 288.93 353.1 288.93 353.47 288.93C353.47 294.52 353.47 297.63 353.47 298.25C353.47 299.39 353.9 299.96 354.74 299.96C355.58 299.96 355.99 299.39 355.99 298.25C355.99 297.63 355.99 294.52 355.99 288.93C356.24 288.93 357.47 288.93 359.69 288.93C359.69 294.92 359.69 298.13 359.69 298.56Z" id="c263F447IH"></path><path d="M299.69 305.84C299.51 305.84 298.65 305.84 297.11 305.84C297.11 305.57 297.11 303.43 297.11 303.16C297.99 303.16 298.48 303.16 298.58 303.16C298.99 303.16 299.31 302.97 299.55 302.59C299.66 302.43 299.74 302.25 299.79 302.05C299.84 301.86 299.86 301.65 299.86 301.42C299.86 301.32 299.86 300.84 299.86 299.98C298.3 299.98 297.43 299.98 297.26 299.98C296.17 299.98 295.24 299.58 294.47 298.77C293.69 297.98 293.29 297.02 293.29 295.89C293.29 295.32 293.29 290.73 293.29 290.15C293.29 289.01 293.69 288.05 294.47 287.27C295.24 286.46 296.18 286.06 297.29 286.06C297.72 286.06 299.85 286.06 303.69 286.06C303.69 287.63 303.69 300.18 303.69 301.74C303.43 303.14 303.03 304.1 302.51 304.63C301.71 305.44 300.77 305.84 299.69 305.84ZM297.12 290.48C297.12 290.99 297.12 295.08 297.12 295.6C297.12 296.74 297.73 297.31 298.95 297.31C299.01 297.31 299.31 297.31 299.86 297.31C299.86 296.45 299.86 289.59 299.86 288.74C299.42 288.74 299.17 288.74 299.12 288.74C297.79 288.74 297.12 289.32 297.12 290.48Z" id="bm2KsUyPS"></path><path d="M299.69 305.84C299.51 305.84 298.65 305.84 297.11 305.84C297.11 305.57 297.11 303.43 297.11 303.16C297.99 303.16 298.48 303.16 298.58 303.16C298.99 303.16 299.31 302.97 299.55 302.59C299.66 302.43 299.74 302.25 299.79 302.05C299.84 301.86 299.86 301.65 299.86 301.42C299.86 301.32 299.86 300.84 299.86 299.98C298.3 299.98 297.43 299.98 297.26 299.98C296.17 299.98 295.24 299.58 294.47 298.77C293.69 297.98 293.29 297.02 293.29 295.89C293.29 295.32 293.29 290.73 293.29 290.15C293.29 289.01 293.69 288.05 294.47 287.27C295.24 286.46 296.18 286.06 297.29 286.06C297.72 286.06 299.85 286.06 303.69 286.06C303.69 287.63 303.69 300.18 303.69 301.74C303.43 303.14 303.03 304.1 302.51 304.63C301.71 305.44 300.77 305.84 299.69 305.84ZM297.12 290.48C297.12 290.99 297.12 295.08 297.12 295.6C297.12 296.74 297.73 297.31 298.95 297.31C299.01 297.31 299.31 297.31 299.86 297.31C299.86 296.45 299.86 289.59 299.86 288.74C299.42 288.74 299.17 288.74 299.12 288.74C297.79 288.74 297.12 289.32 297.12 290.48Z" id="ciC1F3KAa"></path></defs><g><g><use xlink:href="#c4wa6SlM1" opacity="1" fill="#1b75bc" fill-opacity="1"></use><g><use xlink:href="#c4wa6SlM1" opacity="1" fill-opacity="0" stroke="#000000" stroke-width="1" stroke-opacity="0"></use></g></g><g><use xlink:href="#aqtOUsqKJ" opacity="1" fill="#000000" fill-opacity="0"></use><g><use xlink:href="#aqtOUsqKJ" opacity="1" fill-opacity="0" stroke="#000000" stroke-width="1" stroke-opacity="0"></use></g></g><g><use xlink:href="#aB2URPSIb" opacity="1" fill="#1b75bc" fill-opacity="1"></use><g><use xlink:href="#aB2URPSIb" opacity="1" fill-opacity="0" stroke="#000000" stroke-width="1" stroke-opacity="0"></use></g></g><g><use xlink:href="#cluYFt6nc" opacity="1" fill="#000000" fill-opacity="0"></use><g><use xlink:href="#cluYFt6nc" opacity="1" fill-opacity="0" stroke="#000000" stroke-width="1" stroke-opacity="0"></use></g></g><g><use xlink:href="#cFgwWsfzP" opacity="1" fill="#0c2138" fill-opacity="1"></use><g><use xlink:href="#cFgwWsfzP" opacity="1" fill-opacity="0" stroke="#000000" stroke-width="1" stroke-opacity="0"></use></g></g><g><use xlink:href="#hri6z9xhv" opacity="1" fill="#000000" fill-opacity="0"></use><g><use xlink:href="#hri6z9xhv" opacity="1" fill-opacity="0" stroke="#000000" stroke-width="1" stroke-opacity="0"></use></g></g><g><use xlink:href="#aEmmcOdlI" opacity="1" fill="#0c2138" fill-opacity="1"></use><g><use xlink:href="#aEmmcOdlI" opacity="1" fill-opacity="0" stroke="#000000" stroke-width="1" stroke-opacity="0"></use></g></g><g><use xlink:href="#dFUxdin5n" opacity="1" fill="#000000" fill-opacity="0"></use><g><use xlink:href="#dFUxdin5n" opacity="1" fill-opacity="0" stroke="#000000" stroke-width="1" stroke-opacity="0"></use></g></g><g><use xlink:href="#a45YiR5JVW" opacity="1" fill="#0c2138" fill-opacity="1"></use><g><use xlink:href="#a45YiR5JVW" opacity="1" fill-opacity="0" stroke="#000000" stroke-width="1" stroke-opacity="0"></use></g></g><g><use xlink:href="#aoh9MQkho" opacity="1" fill="#000000" fill-opacity="0"></use><g><use xlink:href="#aoh9MQkho" opacity="1" fill-opacity="0" stroke="#000000" stroke-width="1" stroke-opacity="0"></use></g></g><g><use xlink:href="#dNTCvNZQe" opacity="1" fill="#0c2138" fill-opacity="1"></use><g><use xlink:href="#dNTCvNZQe" opacity="1" fill-opacity="0" stroke="#000000" stroke-width="1" stroke-opacity="0"></use></g></g><g><use xlink:href="#ids9liozz" opacity="1" fill="#000000" fill-opacity="0"></use><g><use xlink:href="#ids9liozz" opacity="1" fill-opacity="0" stroke="#000000" stroke-width="1" stroke-opacity="0"></use></g></g><g><use xlink:href="#d13THZDfel" opacity="1" fill="#0c2138" fill-opacity="1"></use><g><use xlink:href="#d13THZDfel" opacity="1" fill-opacity="0" stroke="#000000" stroke-width="1" stroke-opacity="0"></use></g></g><g><use xlink:href="#a3iglf6u37" opacity="1" fill="#000000" fill-opacity="0"></use><g><use xlink:href="#a3iglf6u37" opacity="1" fill-opacity="0" stroke="#000000" stroke-width="1" stroke-opacity="0"></use></g></g><g><use xlink:href="#ayGZhIjIF" opacity="1" fill="#0c2138" fill-opacity="1"></use><g><use xlink:href="#ayGZhIjIF" opacity="1" fill-opacity="0" stroke="#000000" stroke-width="1" stroke-opacity="0"></use></g></g><g><use xlink:href="#dcvYLwJlV" opacity="1" fill="#000000" fill-opacity="0"></use><g><use xlink:href="#dcvYLwJlV" opacity="1" fill-opacity="0" stroke="#000000" stroke-width="1" stroke-opacity="0"></use></g></g><g><use xlink:href="#i3wPsF0NOr" opacity="1" fill="#0c2138" fill-opacity="1"></use><g><use xlink:href="#i3wPsF0NOr" opacity="1" fill-opacity="0" stroke="#000000" stroke-width="1" stroke-opacity="0"></use></g></g><g><use xlink:href="#a1nyflCVcs" opacity="1" fill="#000000" fill-opacity="0"></use><g><use xlink:href="#a1nyflCVcs" opacity="1" fill-opacity="0" stroke="#000000" stroke-width="1" stroke-opacity="0"></use></g></g><g><use xlink:href="#c12NOFuHjV" opacity="1" fill="#1b75bc" fill-opacity="1"></use><g><use xlink:href="#c12NOFuHjV" opacity="1" fill-opacity="0" stroke="#000000" stroke-width="1" stroke-opacity="0"></use></g></g><g><use xlink:href="#b1W2lswJvu" opacity="1" fill="#000000" fill-opacity="0"></use><g><use xlink:href="#b1W2lswJvu" opacity="1" fill-opacity="0" stroke="#000000" stroke-width="1" stroke-opacity="0"></use></g></g><g><use xlink:href="#dlDWBlal" opacity="1" fill="#0c2138" fill-opacity="1"></use><g><use xlink:href="#dlDWBlal" opacity="1" fill-opacity="0" stroke="#000000" stroke-width="1" stroke-opacity="0"></use></g></g><g><use xlink:href="#b319YTd7F" opacity="1" fill="#000000" fill-opacity="0"></use><g><use xlink:href="#b319YTd7F" opacity="1" fill-opacity="0" stroke="#000000" stroke-width="1" stroke-opacity="0"></use></g></g><g><use xlink:href="#a3V3fTuPK1" opacity="1" fill="#0c2138" fill-opacity="1"></use><g><use xlink:href="#a3V3fTuPK1" opacity="1" fill-opacity="0" stroke="#000000" stroke-width="1" stroke-opacity="0"></use></g></g><g><use xlink:href="#a1wlxHS6X3" opacity="1" fill="#000000" fill-opacity="0"></use><g><use xlink:href="#a1wlxHS6X3" opacity="1" fill-opacity="0" stroke="#000000" stroke-width="1" stroke-opacity="0"></use></g></g><g><use xlink:href="#e7XVpByPqb" opacity="1" fill="#0c2138" fill-opacity="1"></use><g><use xlink:href="#e7XVpByPqb" opacity="1" fill-opacity="0" stroke="#000000" stroke-width="1" stroke-opacity="0"></use></g></g><g><use xlink:href="#c263F447IH" opacity="1" fill="#000000" fill-opacity="0"></use><g><use xlink:href="#c263F447IH" opacity="1" fill-opacity="0" stroke="#000000" stroke-width="1" stroke-opacity="0"></use></g></g><g><use xlink:href="#bm2KsUyPS" opacity="1" fill="#ffffff" fill-opacity="1"></use><g><use xlink:href="#bm2KsUyPS" opacity="1" fill-opacity="0" stroke="#000000" stroke-width="1" stroke-opacity="0"></use></g></g><g><use xlink:href="#ciC1F3KAa" opacity="1" fill="#000000" fill-opacity="0"></use><g><use xlink:href="#ciC1F3KAa" opacity="1" fill-opacity="0" stroke="#000000" stroke-width="1" stroke-opacity="0"></use></g></g></g></svg>