<?xml version="1.0" encoding="UTF-8" standalone="no"?>
<!DOCTYPE svg PUBLIC "-//W3C//DTD SVG 1.1//EN" "http://www.w3.org/Graphics/SVG/1.1/DTD/svg11.dtd">
<svg version="1.1" xmlns="http://www.w3.org/2000/svg" xmlns:xlink="http://www.w3.org/1999/xlink" preserveAspectRatio="xMidYMid meet" viewBox="54.21672564882135 222.2166983752333 519.6467266667672 137.17395438520316" width="515.65" height="133.17"><defs><path d="M460.34 331.63L460.34 335.87L456.1 335.87L456.1 331.63L456.1 331.63L460.34 331.63ZM466.22 331.63L466.22 335.87L461.97 335.87L461.97 331.63L461.97 331.63L466.22 331.63ZM466.22 341.74L461.97 341.74L461.97 337.5L466.22 337.5L466.22 337.5L466.22 341.74ZM456.1 341.74L456.1 337.5L460.34 337.5L460.34 341.74L460.34 341.74L456.1 341.74ZM518.2 332.05L518.2 336.29L513.96 336.29L513.96 332.05L513.96 332.05L518.2 332.05ZM524.08 332.05L524.08 336.29L519.83 336.29L519.83 332.05L519.83 332.05L524.08 332.05ZM524.08 342.17L519.83 342.17L519.83 337.92L524.08 337.92L524.08 337.92L524.08 342.17ZM513.96 342.17L513.96 337.92L518.2 337.92L518.2 342.17L518.2 342.17L513.96 342.17Z" id="c2puOBubKY"></path><path d="M460.98 310.68C463.35 312.55 465.7 314.4 468.05 316.27C475.82 322.45 492.21 335.78 492.21 335.78C500.4 329.03 509.89 321.27 518.22 314.47C535.54 328.25 570.86 356.38 570.86 356.38C567.11 356.4 561.71 356.38 557.96 356.38C548.09 348.67 538.22 340.95 528.36 333.24C525.06 330.66 521.76 328.07 518.46 325.48C512.07 330.76 505.81 335.95 499.44 341.22C504.18 345.2 515.79 355.22 517.02 356.38C512.13 356.38 507.23 356.38 502.34 356.38C488.65 345.05 474.95 333.72 461.24 322.37C447.77 333.78 434.43 345.08 421.09 356.38C416.98 356.38 407.96 356.38 407.6 356.38C425.22 341.3 443.21 325.89 460.98 310.68Z" id="a16UTEfweu"></path><path d="M466.66 311.93C464.51 310.25 462.57 308.74 460.55 307.16C459.5 308.09 458.5 308.98 457.22 310.12C457.18 309.33 457.11 252.83 457.11 252.83C459.11 251.71 462.17 249.63 464.18 248.55C464.7 248.27 465.57 248.23 466.1 248.48C468.21 249.48 470.26 250.63 472.33 251.72C472.77 251.95 473.24 252.13 473.93 252.45C473.93 248.98 473.98 245.72 473.9 242.47C473.88 241.37 474.27 240.8 475.18 240.28C484.99 234.69 494.77 229.06 504.58 223.49C505.03 223.23 505.86 223.1 506.22 223.34C512.79 227.74 519.31 232.2 525.71 236.88C519.46 233.78 513.21 230.68 506.72 227.46C506.72 228.38 506.73 289.15 506.73 289.15C504.37 290.47 499.5 293.45 497.16 294.79C497.16 294.79 497.2 317.33 497.23 327.59C496.89 327.91 495.16 329.49 492.05 332.33C490.33 330.67 489.38 329.75 489.19 329.57C489.28 309 489.28 264.1 489.28 264.1C482.87 260.76 474.8 256.43 468.43 253.01C467.94 252.75 467.43 252.53 466.66 252.16C466.66 272.18 466.66 291.9 466.66 311.93Z" id="a6knBPD89"></path><path d="M517.5 310.82C511.98 315.62 506.4 320.47 500.75 325.38C500.75 322.44 500.75 298.95 500.75 296.01C511.3 290.39 524.13 283.54 534.68 277.92C534.68 277.92 535.01 278.1 535.46 278.34C541.71 281.75 547.93 285.23 554.15 288.7C554.31 288.78 554.44 288.92 554.48 289.25C547.72 286.53 540.97 283.82 534 281.02C534 295.38 534 309.47 534 323.99C528.29 319.43 522.93 315.16 517.5 310.82Z" id="e6KUTJFgH"></path><path d="M442.69 322.6C440.03 324.76 436.23 328.01 433.43 330.38C433.37 329.78 433.29 267.44 433.29 267.1C436 265.61 439.75 263.41 442.66 261.73C442.66 262.51 442.68 310.43 442.69 322.6Z" id="l1XwP6ftmM"></path><path d="M453.93 313.06C452.05 314.52 449.11 317.07 447.13 318.74C447.08 318.17 447 258.18 447 258.18C447 258.18 451.9 255.29 453.91 254.32C453.91 255.09 453.93 312.87 453.93 313.06Z" id="bpTaJEGAU"></path><path d="M68.1 325.87L55.22 325.87L55.22 246.21L68.1 246.21L68.1 325.87Z" id="b1sVHBIevA"></path><path d="M101.04 331.96C101.04 335.78 99.72 339.05 97.08 341.77C94.43 344.53 91.27 345.91 87.59 345.91C87.06 345.91 84.39 345.91 79.6 345.91L79.6 336.75C82.15 336.75 83.57 336.75 83.85 336.75C86.73 336.75 88.17 334.76 88.17 330.78C88.17 327.28 88.17 309.76 88.17 278.24L101.04 278.24L101.04 316.71L105.82 316.71L105.82 325.87L101.04 325.87C101.04 329.53 101.04 331.55 101.04 331.96Z" id="hzG7O5Nod"></path><path d="M170.39 278.24C170.39 298.38 170.39 309.57 170.39 311.81C170.39 315.75 169.06 319.06 166.42 321.74C163.73 324.49 160.57 325.87 156.93 325.87C156.55 325.87 153.47 325.87 153.08 325.87C149.4 325.8 146.26 324.4 143.65 321.68C143.34 321.36 143.08 321.05 142.85 320.73C142.62 320.42 142.39 320.08 142.16 319.73C141.89 320.08 141.64 320.42 141.41 320.73C141.18 321.05 140.91 321.36 140.61 321.68C138 324.44 134.86 325.84 131.18 325.87C130.79 325.87 127.71 325.87 127.32 325.87C123.84 325.87 120.86 324.63 118.41 322.15C115.81 324.6 112.8 325.84 109.39 325.87C109.06 325.87 107.41 325.87 104.44 325.87L104.44 316.71C106.79 316.71 108.09 316.71 108.35 316.71C110.27 316.71 111.72 316.3 112.72 315.47C113.68 314.61 114.16 313.07 114.16 310.86C114.16 308.69 114.16 297.81 114.16 278.24L127.04 278.24C127.04 297.74 127.04 308.58 127.04 310.74C127.04 314.72 128.51 316.71 131.46 316.71C134.38 316.71 135.83 314.78 135.83 310.92C135.83 308.74 135.83 297.85 135.83 278.24L148.71 278.24C148.71 297.74 148.71 308.58 148.71 310.74C148.71 314.72 150.19 316.71 153.14 316.71C156.05 316.71 157.51 314.72 157.51 310.74C157.51 308.58 157.51 297.74 157.51 278.24L170.39 278.24Z" id="flnfwQSJl"></path><path d="M177.46 337.21C176.89 337.21 176.42 336.74 176.42 336.16C176.42 331.21 176.42 291.59 176.42 286.64C176.42 276.61 184.55 268.48 194.58 268.48C196.26 268.48 209.73 268.48 211.42 268.48C211.72 268.48 211.96 268.73 211.96 269.03C211.96 274.33 211.96 316.74 211.96 322.04C211.96 330.42 205.17 337.21 196.8 337.21C192.93 337.21 179.39 337.21 177.46 337.21Z" id="fzNv9sG1c"></path><path d="M287.55 282.38C290.12 285.21 291.4 288.52 291.4 292.3C291.4 293.93 291.4 302.07 291.4 316.71L297.55 316.71L297.55 325.87C256.67 325.87 233.96 325.87 229.42 325.87C225.7 325.87 222.52 324.49 219.87 321.73C218.61 320.36 217.64 318.87 216.97 317.27C216.3 315.68 215.96 313.89 215.96 311.92C215.96 309.68 215.96 298.45 215.96 278.24L228.85 278.24C228.85 297.81 228.85 308.69 228.85 310.86C228.85 312.36 229.23 313.74 229.99 315C230.76 316.14 231.85 316.71 233.27 316.71C234.82 316.71 242.54 316.71 256.44 316.71C256.44 302.03 256.44 293.88 256.44 292.25C256.44 288.58 257.76 285.29 260.41 282.38C263.09 279.62 266.27 278.24 269.95 278.24C270.76 278.24 277.2 278.24 278 278.24C279.88 278.24 281.61 278.58 283.18 279.27C284.75 279.96 286.21 281 287.55 282.38ZM269.47 268.84C268.37 267.66 267.83 266.2 267.83 264.47C267.83 263.64 267.97 262.85 268.26 262.1C268.55 261.36 268.95 260.7 269.47 260.15C269.98 259.6 270.59 259.17 271.28 258.85C271.97 258.54 272.7 258.38 273.46 258.38C274.23 258.38 274.96 258.54 275.65 258.85C276.33 259.17 276.93 259.6 277.43 260.15C277.93 260.7 278.32 261.36 278.61 262.1C278.89 262.85 279.04 263.64 279.04 264.47C279.04 266.2 278.5 267.66 277.43 268.84C276.35 270.02 275.03 270.62 273.46 270.62C271.89 270.62 270.56 270.02 269.47 268.84ZM273.92 287.4C270.85 287.4 269.32 289.43 269.32 293.49C269.32 295.04 269.32 302.78 269.32 316.71L278.52 316.71L278.52 293.43C277.58 289.41 276.04 287.4 273.92 287.4Z" id="a5WpyR3kqw"></path><path d="M333.94 282.38C336.51 285.21 337.8 288.52 337.8 292.3C337.8 293.93 337.8 302.07 337.8 316.71L343.09 316.71L343.09 325.87L295.94 325.87L295.94 316.71L302.84 316.71C302.84 302.03 302.84 293.88 302.84 292.25C302.84 288.58 304.16 285.29 306.81 282.38C309.49 279.62 312.67 278.24 316.35 278.24C317.16 278.24 323.6 278.24 324.4 278.24C326.28 278.24 328 278.58 329.58 279.27C331.15 279.96 332.6 281 333.94 282.38ZM309.22 268.84C308.15 267.66 307.61 266.2 307.61 264.47C307.61 263.64 307.76 262.85 308.05 262.1C308.33 261.36 308.73 260.7 309.25 260.15C309.77 259.6 310.36 259.17 311.03 258.85C311.7 258.54 312.44 258.38 313.25 258.38C314.01 258.38 314.73 258.54 315.4 258.85C316.07 259.17 316.66 259.6 317.16 260.15C317.65 260.7 318.05 261.36 318.34 262.1C318.63 262.85 318.77 263.64 318.77 264.47C318.77 265.34 318.63 266.15 318.34 266.89C318.05 267.64 317.66 268.29 317.16 268.84C316.66 269.39 316.07 269.83 315.4 270.14C314.73 270.46 314.01 270.62 313.25 270.62C311.63 270.62 310.29 270.02 309.22 268.84ZM320.32 287.4C317.25 287.4 315.72 289.43 315.72 293.49C315.72 295.04 315.72 302.78 315.72 316.71L324.92 316.71L324.92 293.43C323.9 289.41 322.36 287.4 320.32 287.4ZM322.24 268.84C321.15 267.66 320.6 266.2 320.6 264.47C320.6 263.64 320.75 262.85 321.04 262.1C321.32 261.36 321.72 260.7 322.24 260.15C322.76 259.6 323.36 259.17 324.06 258.85C324.74 258.54 325.47 258.38 326.24 258.38C327 258.38 327.74 258.54 328.42 258.85C329.11 259.17 329.71 259.6 330.21 260.15C330.7 260.7 331.1 261.36 331.38 262.1C331.67 262.85 331.82 263.64 331.82 264.47C331.82 266.2 331.28 267.66 330.21 268.84C329.14 270.02 327.81 270.62 326.24 270.62C324.67 270.62 323.34 270.02 322.24 268.84Z" id="d5AtD3zlO"></path><path d="M407.6 278.24C407.6 298.38 407.6 309.57 407.6 311.81C407.6 315.75 406.28 319.06 403.63 321.74C400.95 324.49 397.79 325.87 394.15 325.87C393.76 325.87 390.68 325.87 390.29 325.87C386.61 325.8 383.47 324.4 380.86 321.68C380.56 321.36 380.29 321.05 380.06 320.73C379.83 320.42 379.6 320.08 379.37 319.73C379.1 320.08 378.85 320.42 378.62 320.73C378.39 321.05 378.12 321.36 377.82 321.68C375.21 324.44 372.07 325.84 368.39 325.87C368 325.87 364.92 325.87 364.54 325.87C361.05 325.87 358.08 324.63 355.63 322.15C353.02 324.6 350.01 325.84 346.6 325.87C346.27 325.87 344.62 325.87 341.65 325.87L341.65 316.71C344 316.71 345.3 316.71 345.56 316.71C347.48 316.71 348.94 316.3 349.93 315.47C350.89 314.61 351.37 313.07 351.37 310.86C351.37 308.69 351.37 297.81 351.37 278.24L364.25 278.24C364.25 297.74 364.25 308.58 364.25 310.74C364.25 314.72 365.73 316.71 368.68 316.71C371.59 316.71 373.05 314.78 373.05 310.92C373.05 308.74 373.05 297.85 373.05 278.24L385.93 278.24C385.93 297.74 385.93 308.58 385.93 310.74C385.93 314.72 387.4 316.71 390.35 316.71C393.26 316.71 394.72 314.72 394.72 310.74C394.72 308.58 394.72 297.74 394.72 278.24L407.6 278.24Z" id="b2ywQThoa"></path><path d="M208.2 332.99C205.42 335.8 202.14 337.21 198.36 337.21C197.76 337.21 194.76 337.21 189.36 337.21L189.36 327.87C192.44 327.87 194.15 327.87 194.49 327.87C195.92 327.87 197.05 327.21 197.89 325.88C198.28 325.32 198.56 324.7 198.72 324.01C198.88 323.33 198.96 322.59 198.96 321.79C198.96 321.45 198.96 319.78 198.96 316.78C193.52 316.78 190.5 316.78 189.9 316.78C186.09 316.78 182.85 315.38 180.18 312.57C177.44 309.8 176.07 306.44 176.07 302.51C176.07 300.51 176.07 284.51 176.07 282.51C176.07 278.53 177.44 275.18 180.18 272.45C182.85 269.64 186.13 268.23 190.02 268.23C191.51 268.23 198.94 268.23 212.31 268.23L212.31 322.93C211.4 327.79 210.02 331.14 208.2 332.99ZM196.4 277.57C191.75 277.57 189.42 279.6 189.42 283.65C189.42 285.44 189.42 299.7 189.42 301.49C189.42 305.46 191.55 307.45 195.8 307.45C196.01 307.45 197.06 307.45 198.96 307.45L198.96 277.57C197.42 277.57 196.57 277.57 196.4 277.57Z" id="atRdjZV4S"></path></defs><g><g><use xlink:href="#c2puOBubKY" opacity="1" fill="#1b75bc" fill-opacity="1"></use><g><use xlink:href="#c2puOBubKY" opacity="1" fill-opacity="0" stroke="#000000" stroke-width="1" stroke-opacity="0"></use></g></g><g><use xlink:href="#a16UTEfweu" opacity="1" fill="#1b75bc" fill-opacity="1"></use><g><use xlink:href="#a16UTEfweu" opacity="1" fill-opacity="0" stroke="#000000" stroke-width="1" stroke-opacity="0"></use></g></g><g><use xlink:href="#a6knBPD89" opacity="1" fill="#0c2138" fill-opacity="1"></use><g><use xlink:href="#a6knBPD89" opacity="1" fill-opacity="0" stroke="#000000" stroke-width="1" stroke-opacity="0"></use></g></g><g><use xlink:href="#e6KUTJFgH" opacity="1" fill="#0c2138" fill-opacity="1"></use><g><use xlink:href="#e6KUTJFgH" opacity="1" fill-opacity="0" stroke="#000000" stroke-width="1" stroke-opacity="0"></use></g></g><g><use xlink:href="#l1XwP6ftmM" opacity="1" fill="#0c2138" fill-opacity="1"></use><g><use xlink:href="#l1XwP6ftmM" opacity="1" fill-opacity="0" stroke="#000000" stroke-width="1" stroke-opacity="0"></use></g></g><g><use xlink:href="#bpTaJEGAU" opacity="1" fill="#0c2138" fill-opacity="1"></use><g><use xlink:href="#bpTaJEGAU" opacity="1" fill-opacity="0" stroke="#000000" stroke-width="1" stroke-opacity="0"></use></g></g><g><use xlink:href="#b1sVHBIevA" opacity="1" fill="#0c2138" fill-opacity="1"></use><g><use xlink:href="#b1sVHBIevA" opacity="1" fill-opacity="0" stroke="#000000" stroke-width="1" stroke-opacity="0"></use></g></g><g><use xlink:href="#hzG7O5Nod" opacity="1" fill="#0c2138" fill-opacity="1"></use><g><use xlink:href="#hzG7O5Nod" opacity="1" fill-opacity="0" stroke="#000000" stroke-width="1" stroke-opacity="0"></use></g></g><g><use xlink:href="#flnfwQSJl" opacity="1" fill="#0c2138" fill-opacity="1"></use><g><use xlink:href="#flnfwQSJl" opacity="1" fill-opacity="0" stroke="#000000" stroke-width="1" stroke-opacity="0"></use></g></g><g><use xlink:href="#fzNv9sG1c" opacity="1" fill="#1b75bc" fill-opacity="1"></use><g><use xlink:href="#fzNv9sG1c" opacity="1" fill-opacity="0" stroke="#000000" stroke-width="1" stroke-opacity="0"></use></g></g><g><use xlink:href="#a5WpyR3kqw" opacity="1" fill="#0c2138" fill-opacity="1"></use><g><use xlink:href="#a5WpyR3kqw" opacity="1" fill-opacity="0" stroke="#000000" stroke-width="1" stroke-opacity="0"></use></g></g><g><use xlink:href="#d5AtD3zlO" opacity="1" fill="#0c2138" fill-opacity="1"></use><g><use xlink:href="#d5AtD3zlO" opacity="1" fill-opacity="0" stroke="#000000" stroke-width="1" stroke-opacity="0"></use></g></g><g><use xlink:href="#b2ywQThoa" opacity="1" fill="#0c2138" fill-opacity="1"></use><g><use xlink:href="#b2ywQThoa" opacity="1" fill-opacity="0" stroke="#000000" stroke-width="1" stroke-opacity="0"></use></g></g><g><use xlink:href="#atRdjZV4S" opacity="1" fill="#ffffff" fill-opacity="1"></use><g><use xlink:href="#atRdjZV4S" opacity="1" fill-opacity="0" stroke="#000000" stroke-width="1" stroke-opacity="0"></use></g></g></g></svg>